<svg version="1" xmlns="http://www.w3.org/2000/svg" width="346.667" height="346.667" viewBox="0 0 260 260"><path d="M184.3 23.1c-17 4.3-34.4 14.2-47.4 27.1-7.8 7.8-8.6 8.8-13.4 15.4l-2.9 4.1-4.6-4.4c-13.8-13.5-36.4-22.4-57-22.5-18.1 0-31.2 4.7-41.8 15.2C7 68 2.2 80.9 2.6 97c.3 13.2 2.1 20.3 8.2 32.5 10.3 20.7 27.7 40.6 60.2 68.8 49 42.5 48.1 41.7 53.6 39.8 1.7-.6 4.9-1 7.2-.9 3.5.1 5.5-.7 12.9-5.7 13.7-9 25.8-18.2 42.8-32.5 1.7-1.4 8.9-8.3 16-15.5 20-20 33.1-37.1 43.2-56.5 2.5-4.7 4.4-8.5 4.3-8.5-.1 0 .5-2 2.1-6.5 5-14.4 5.7-31.1 1.9-45-4.1-15.3-18.5-34.2-30.5-40-11.8-5.7-27.1-7.2-40.2-3.9zM213 44.7c13 5.9 23.2 24.4 23.1 41.8-.1 16.5-9.6 38.5-25 57.5-2 2.4-4.5 5.6-5.6 6.9-11.1 13.7-32.3 33.9-48.4 46.1-7.8 5.9-20.8 15-25.7 18l-5.3 3.2-10.3-8.8c-31.3-26.5-37.4-31.7-46.3-40.3-28.6-27.7-43-48.1-45.2-64.2C21.5 84 28.6 70.5 45 65.5c17.9-5.4 43.1 1.5 57.3 15.8 6.5 6.6 7.8 8.6 9.6 15.5 1.6 5.8 5.6 8 13.2 7.3 2.7-.2 5.8-4 6.9-8.4 4.7-17.7 25-39.2 45.7-48.3 13.2-5.8 26.2-6.8 35.3-2.7z"/></svg>